<?xml version="1.0" encoding="UTF-8"?>
<svg width="119px" height="31px" viewBox="0 0 119 31" version="1.1" xmlns="http://www.w3.org/2000/svg" xmlns:xlink="http://www.w3.org/1999/xlink">
    <title>编组 7</title>
    <symbol id="logo-symbol-wordmark">
    <defs>
        <linearGradient x1="50%" y1="0%" x2="50%" y2="100%" id="linearGradient-1">
            <stop stop-color="#C600FF" offset="0%"></stop>
            <stop stop-color="#4BAEFF" offset="100%"></stop>
        </linearGradient>
        <linearGradient x1="50%" y1="0%" x2="50%" y2="100%" id="linearGradient-2">
            <stop stop-color="#E4C13B" offset="0%"></stop>
            <stop stop-color="#F7450F" offset="100%"></stop>
        </linearGradient>
        <linearGradient x1="50%" y1="0%" x2="50%" y2="98.7921015%" id="linearGradient-3">
            <stop stop-color="#7E07FF" offset="0%"></stop>
            <stop stop-color="#FF4900" offset="100%"></stop>
        </linearGradient>
    </defs>
    <g id="页面-1" stroke="none" stroke-width="1" fill="none" fill-rule="evenodd">
        <g id="编组-7" transform="translate(0.630748, 0.500000)">
            <g id="编组-3" transform="translate(0.000000, 3.000000)">
                <g id="编组-6">
                    <polygon id="矩形" fill="url(#linearGradient-1)" points="8.99917535 0 20.6436198 0 11.6444444 24 0 24"></polygon>
                    <polygon id="矩形备份" fill="url(#linearGradient-2)" points="27.3102865 0 38.9547309 0 29.9555556 24 18.3111111 24"></polygon>
                    <polygon id="矩形备份-2" fill="url(#linearGradient-3)" transform="translate(19.299588, 12.000000) scale(-1, 1) translate(-19.299588, -12.000000) " points="17.9769531 0 29.6213976 0 20.6222222 24 8.97777778 24"></polygon>
                </g>
                <g id="China备份" transform="translate(41.843953, 3.913367)" fill="currentColor" fill-rule="nonzero">
                    <path d="M3.07970724,0 C3.38936939,0 3.69252604,0.0351297403 3.98917718,0.105389221 C4.28582832,0.175648702 4.60589929,0.295350039 4.94939008,0.464493233 L4.94939008,1.45593257 C4.6137059,1.26336955 4.30339319,1.12415169 4.01845196,1.03827899 C3.73351074,0.952406294 3.43620905,0.909469944 3.12654689,0.909469944 C2.73881864,0.909469944 2.38882234,0.989487686 2.07655798,1.14952317 C1.76429363,1.30955865 1.5216382,1.53529976 1.3485917,1.8267465 C1.1755452,2.11819323 1.08902195,2.4421675 1.08902195,2.79866931 C1.08902195,3.16297773 1.17489465,3.48955421 1.34664005,3.77839874 C1.51838544,4.06724327 1.76039032,4.29038218 2.07265468,4.44781546 C2.38491904,4.60524874 2.73621644,4.68396538 3.12654689,4.68396538 C3.42580023,4.68396538 3.71139201,4.64102903 3.98332222,4.55515633 C4.25525244,4.46928363 4.59809268,4.31445255 5.01184296,4.0906631 L5.01184296,5.08210244 C4.65794335,5.26685885 4.33266798,5.3982701 4.03601683,5.47633619 C3.73936569,5.55440228 3.3932727,5.59343532 2.99773784,5.59343532 C2.42265098,5.59343532 1.90871589,5.47893839 1.45593257,5.24994453 C1.00314925,5.02095067 0.647297993,4.69112144 0.388378796,4.26045684 C0.129459599,3.82979225 0,3.35814296 0,2.84550897 C0,2.29644414 0.133362903,1.80332667 0.400088709,1.36615657 C0.666814516,0.928986467 1.03372514,0.59200118 1.50082057,0.355200708 C1.96791601,0.118400236 2.49421156,0 3.07970724,0 Z" id="路径"></path>
                    <polygon id="路径" points="7.06888442 0.0702594807 7.06888442 2.36540252 9.89878017 2.36540252 9.89878017 0.0702594807 10.9526724 0.0702594807 10.9526724 5.52317584 9.89878017 5.52317584 9.89878017 3.2202262 7.06888442 3.2202262 7.06888442 5.52317584 6.01499221 5.52317584 6.01499221 0.0702594807"></polygon>
                    <polygon id="路径" points="13.2322022 0.0702594807 13.2322022 5.52317584 12.17831 5.52317584 12.17831 0.0702594807"></polygon>
                    <polygon id="路径" points="15.382923 0.0702594807 18.6226657 3.87598135 18.6226657 0.0702594807 19.6531381 0.0702594807 19.6531381 5.52317584 18.7475714 5.52317584 15.4883122 1.6550011 15.4883122 5.52317584 14.4578398 5.52317584 14.4578398 0.0702594807"></polygon>
                    <path d="M23.6149921,0.0702594807 L26.023331,5.52317584 L24.9108892,5.52317584 L24.3449101,4.19605232 L21.920958,4.19605232 L21.3940119,5.52317584 L20.2893767,5.52317584 L22.5376801,0.0702594807 L23.6149921,0.0702594807 Z M22.2410289,3.3958749 L24.0014193,3.3958749 L23.0802394,1.23734752 L22.2410289,3.3958749 Z" id="形状"></path>
                </g>
                <g id="News-Hub" transform="translate(41.968487, 12.335808)" fill="currentColor" fill-rule="nonzero">
                    <polygon id="路径" points="9.32456071 8.70498857 7.01975235 8.70498857 2.56502866 3.92189165 2.56502866 8.70498857 0 8.70498857 0 0.117718707 2.29861264 0.117718707 6.74094488 4.87603274 6.74094488 0.117718707 9.32456071 0.117718707"></polygon>
                    <polygon id="路径" points="17.9552006 8.70498857 11.4806718 8.70498857 11.4806718 0.117718707 17.8498734 0.117718707 17.8498734 1.84012926 14.0704833 1.84012926 14.0704833 3.41384249 17.6763932 3.41384249 17.6763932 5.14244876 14.0704833 5.14244876 14.0704833 6.9763823 17.9552006 6.9763823"></polygon>
                    <polygon id="路径" points="33.5993972 0.117718707 29.8819643 8.81651155 28.3825997 8.81651155 26.15214 3.75460717 23.8659188 8.81651155 22.3541628 8.81651155 18.7110786 0.117718707 21.393826 0.117718707 23.1781938 4.87603274 25.2227818 0.117718707 27.0753025 0.117718707 29.0827163 4.87603274 30.9476284 0.117718707"></polygon>
                    <path d="M40.7926297,6.20811284 C40.7926297,6.74507536 40.6552912,7.20975447 40.3806142,7.60215016 C40.1059372,7.99454585 39.7228351,8.29503833 39.2313079,8.50362762 C38.7397807,8.71221691 38.17597,8.81651155 37.539876,8.81651155 C37.3622653,8.81651155 37.1443824,8.80515273 36.8862274,8.78243508 C36.6280723,8.75971744 36.2852424,8.69672761 35.8577376,8.59346558 C35.4302328,8.49020356 34.9851735,8.33737576 34.5225596,8.1349822 L34.5225596,6.02843692 C34.9562601,6.29691818 35.3827323,6.51996415 35.8019761,6.69757483 C36.2212199,6.87518551 36.6704097,6.96399085 37.1495455,6.96399085 C37.591507,6.96399085 37.8775428,6.89067482 38.0076529,6.74404274 C38.1377631,6.59741067 38.2028182,6.46007218 38.2028182,6.33202727 C38.2028182,6.10072034 38.0912952,5.90555511 37.8682492,5.7465316 C37.6452032,5.58750808 37.3209605,5.42332147 36.8955209,5.25397175 C36.4246461,5.05570866 36.011598,4.83989103 35.6563767,4.60651886 C35.3011553,4.37314669 35.010989,4.08091516 34.7858778,3.72982428 C34.5607666,3.3787334 34.448211,2.96362007 34.448211,2.48448428 C34.448211,2.02187042 34.5617992,1.60365922 34.7889757,1.2298507 C35.0161521,0.856042173 35.3631125,0.557614926 35.8298569,0.334568956 C36.2966012,0.111522985 36.8666076,0 37.539876,0 C38.0190118,0 38.4620058,0.0464679105 38.8688582,0.139403732 C39.2757106,0.232339553 39.6113122,0.336634196 39.8756629,0.452287662 C40.1400137,0.567941128 40.3217549,0.658811709 40.4208864,0.724899404 L40.4208864,2.73850886 C40.0697955,2.48654952 39.6784325,2.26143831 39.2467972,2.06317523 C38.815162,1.86491214 38.3535807,1.7657806 37.8620535,1.7657806 C37.539876,1.7657806 37.3065038,1.82773781 37.161937,1.95165224 C37.0173701,2.07556667 36.9450867,2.22839446 36.9450867,2.41013562 C36.9450867,2.57948534 37.0173701,2.72611742 37.161937,2.85003184 C37.3065038,2.97394627 37.5646588,3.12470883 37.9364021,3.30231951 C38.5972791,3.61210558 39.1259806,3.89091304 39.5225068,4.1387419 C39.919033,4.38657075 40.2298517,4.67260656 40.4549629,4.99684931 C40.6800741,5.32109206 40.7926297,5.72484657 40.7926297,6.20811284 Z" id="路径"></path>
                    <polygon id="路径" points="55.3897493 8.70498857 52.8061335 8.70498857 52.8061335 5.35310329 48.9090247 5.35310329 48.9090247 8.70498857 46.3192132 8.70498857 46.3192132 0.117718707 48.9090247 0.117718707 48.9090247 3.2713409 52.8061335 3.2713409 52.8061335 0.117718707 55.3897493 0.117718707"></polygon>
                    <path d="M66.4924821,4.85744558 C66.4924821,5.59267118 66.3551436,6.21947167 66.0804666,6.73784702 C65.8057896,7.25622238 65.4423073,7.66617261 64.9900196,7.96769772 C64.537732,8.26922283 64.0503352,8.48607308 63.5278294,8.61824847 C63.0053235,8.75042386 62.4838503,8.81651155 61.9634097,8.81651155 C61.2364451,8.81651155 60.5291002,8.69259712 59.8413751,8.44476827 C59.1536501,8.19693941 58.5784806,7.77563036 58.1158667,7.1808411 C57.6532529,6.58605185 57.4219459,5.81158667 57.4219459,4.85744558 L57.4219459,0.117718707 L60.0055618,0.117718707 L60.0055618,4.18830767 C60.0055618,4.75418355 60.0871388,5.22196052 60.2502928,5.59163856 C60.4134468,5.96131661 60.6406232,6.23186311 60.9318221,6.40327807 C61.223021,6.57469303 61.5668836,6.66040051 61.9634097,6.66040051 C62.343414,6.66040051 62.6800482,6.57572565 62.9733123,6.40637593 C63.2665765,6.23702621 63.4947855,5.96854495 63.6579395,5.60093215 C63.8210935,5.23331934 63.9026705,4.766575 63.9026705,4.20069911 L63.9026705,0.117718707 L66.4924821,0.117718707 L66.4924821,4.85744558 Z" id="路径"></path>
                    <path d="M76.368462,6.27007006 C76.368462,7.00942614 76.11547,7.60008492 75.6094861,8.04204638 C75.1035022,8.48400784 74.3961573,8.70498857 73.4874515,8.70498857 L68.5246787,8.70498857 L68.5246787,0.117718707 L72.675812,0.117718707 C73.2127745,0.117718707 73.6805515,0.169349718 74.0791429,0.272611742 C74.4777343,0.375873765 74.7988792,0.517342737 75.0425776,0.697018658 C75.286276,0.876694578 75.4680171,1.08838173 75.5878011,1.3320801 C75.707585,1.57577848 75.767477,1.8421945 75.767477,2.13132816 C75.767477,2.44524471 75.7055198,2.735411 75.5816054,3.00182702 C75.4576909,3.26824304 75.3038305,3.48715853 75.1200241,3.65857349 C74.9362177,3.82998845 74.7513787,3.95080501 74.5655071,4.02102319 C75.1520353,4.25233012 75.5991599,4.54456165 75.9068807,4.89771777 C76.2146016,5.25087389 76.368462,5.70832465 76.368462,6.27007006 Z M73.3449499,2.58981155 C73.3449499,2.17676345 73.2086441,1.90208647 72.9360323,1.7657806 C72.6634206,1.62947473 72.237981,1.56132179 71.6597137,1.56132179 L71.1144902,1.56132179 L71.1144902,3.6183013 L71.6721052,3.6183013 C72.2627639,3.6183013 72.6892361,3.55014836 72.9515216,3.41384249 C73.2138072,3.27753662 73.3449499,3.00285964 73.3449499,2.58981155 Z M73.766259,6.16474279 C73.766259,5.42951719 73.233427,5.06190438 72.1677629,5.06190438 L71.1144902,5.06190438 L71.1144902,7.26138548 L72.1677629,7.26138548 C73.233427,7.26138548 73.766259,6.89583792 73.766259,6.16474279 Z" id="形状"></path>
                </g>
            </g>
        </g>
    </g>
    </symbol >
    <use xlink:href="#logo-symbol-wordmark" />
</svg>
