<?xml version="1.0" encoding="UTF-8"?>
<svg width="144px" height="79.022323px" viewBox="0 0 144 79.022323" version="1.1" xmlns="http://www.w3.org/2000/svg" xmlns:xlink="http://www.w3.org/1999/xlink">
    <title>编组 3备份</title>
    <symbol id="logo-symbol-wordmark">
    <defs>
        <linearGradient x1="77.324179%" y1="16.4170689%" x2="32.5589959%" y2="89.5450284%" id="linearGradient-1">
            <stop stop-color="#24E6FE" offset="0%"></stop>
            <stop stop-color="#164CF3" offset="62.8629671%"></stop>
            <stop stop-color="#B601FF" offset="100%"></stop>
        </linearGradient>
        <linearGradient x1="50%" y1="0%" x2="50%" y2="99.2863582%" id="linearGradient-2">
            <stop stop-color="#FFFFFF" offset="0%"></stop>
            <stop stop-color="#FFFFFF" offset="100%"></stop>
        </linearGradient>
        <linearGradient x1="50%" y1="0%" x2="50%" y2="100%" id="linearGradient-3">
            <stop stop-color="#FFFFFF" offset="0%"></stop>
            <stop stop-color="#FFFFFF" offset="99.2863582%"></stop>
        </linearGradient>
    </defs>
    <g id="页面-1" stroke="none" stroke-width="1" fill="none" fill-rule="evenodd">
        <g id="编组-3备份">
            <g id="编组" transform="translate(45.4826, 0)" fill="url(#linearGradient-1)" fill-rule="nonzero">
                <path d="M28.5979173,0.566850721 L50.8269501,13.3557766 C52.1406433,14.1115775 52.9499116,15.5083553 52.9499116,17.0199572 L52.9499116,42.597809 C52.9499116,44.1094109 52.1406433,45.5061887 50.8269501,46.2619896 L28.5979173,59.0509155 C27.2842242,59.8067165 25.6656874,59.8067165 24.3519943,59.0509155 L2.12296151,46.2619896 C0.809268355,45.5061887 0,44.1094109 0,42.597809 L0,17.0199572 C0,15.5083553 0.809268355,14.1115775 2.12296151,13.3557766 L24.3519943,0.566850721 C25.6656874,-0.18895024 27.2842242,-0.18895024 28.5979173,0.566850721 Z" id="多边形备份"></path>
            </g>
            <text id="China-News-Hub" font-family="GillSans-Bold, Gill Sans" font-size="16.9711255" font-weight="bold" line-spacing="12.7283441" fill="currentColor" fill-rule="nonzero">
                <tspan x="0" y="82.022323">China News Hub</tspan>
            </text>
            <path d="M68.5673289,8.37285993 C68.7314901,8.65588922 68.817914,8.97694568 68.817914,9.30375982 L68.817914,31.8926836 L62.4321508,20.7723661 L62.4321508,17.2658997 L56.7024416,20.5587565 C56.3365558,20.7690304 56.1111609,21.1576327 56.1111609,21.5781805 L56.1111609,39.3875932 C56.1111609,39.8081411 56.3365558,40.1967433 56.7024416,40.4070172 L62.4321508,43.6998741 L62.4321474,29.8511652 L68.817914,41.7915676 L68.817914,50.3988815 C68.817914,51.4271245 67.9805118,52.2606802 66.9475239,52.2606802 C66.6192017,52.2606802 66.2966637,52.1746533 66.0123284,52.0112461 L51.5113579,43.6775564 C50.4062019,43.0424251 49.7253978,41.8686542 49.7253978,40.5983916 L49.7253978,19.1042497 C49.7253978,17.8339871 50.4062019,16.6602162 51.5113579,16.0250849 L66.0123284,7.69139517 C66.906922,7.17727335 68.0508347,7.48237552 68.5673289,8.37285993 Z" id="路径" fill="url(#linearGradient-2)" fill-rule="nonzero"></path>
            <path d="M77.9788023,7.69520549 L81.5462581,9.74454182 L81.5462581,9.74454182 L81.5462702,24.3846534 L87.9104545,20.7765486 L87.9104302,13.4005453 L92.4886421,16.0306 C93.5813806,16.6583374 94.2592497,17.8124623 94.2743448,19.0657388 L94.2746022,19.1085019 L94.2746022,40.5938285 C94.2746022,41.86357 93.5937981,43.0368596 92.4886421,43.6717304 L87.9104302,46.3017005 L87.9104545,27.940874 L81.5462702,31.5011941 L81.5462581,49.957704 L77.9788185,52.0070785 C77.0848162,52.5206528 75.9437498,52.212255 75.4301754,51.3182527 C75.2676252,51.0352941 75.182086,50.7146693 75.182086,50.3883441 L75.182086,9.31394918 C75.182086,8.28293086 76.0178915,7.44712537 77.0489098,7.44712537 C77.3752287,7.44712537 77.6958476,7.53266125 77.9788023,7.69520549 Z" id="路径" fill="url(#linearGradient-3)" fill-rule="nonzero"></path>
        </g>
    </g>
    </symbol>
    <use xlink:href="#logo-symbol-wordmark" />
</svg>
